<svg width="182" height="173" viewBox="0 0 182 173" fill="none" xmlns="http://www.w3.org/2000/svg">
<ellipse cx="91" cy="86.5" rx="90" ry="85.5" fill="white" fill-opacity="0.95" stroke="black" stroke-opacity="0.15"/>
<path d="M91.0002 11.6383C51.541 11.6383 19.5703 44.999 19.5703 86.1739C19.5703 127.349 51.541 160.709 91.0002 160.709C130.46 160.709 162.43 127.349 162.43 86.1739C162.43 44.999 130.46 11.6383 91.0002 11.6383ZM91.0002 40.4908C104.998 40.4908 116.346 52.3324 116.346 66.9389C116.346 81.5455 104.998 93.387 91.0002 93.387C77.0023 93.387 65.6541 81.5455 65.6541 66.9389C65.6541 52.3324 77.0023 40.4908 91.0002 40.4908ZM91.0002 143.879C74.0932 143.879 58.9432 135.884 48.8047 123.382C54.2196 112.742 64.8189 105.409 77.1751 105.409C77.8664 105.409 78.5576 105.529 79.2201 105.739C82.9644 107.002 86.8815 107.813 91.0002 107.813C95.119 107.813 99.0649 107.002 102.78 105.739C103.443 105.529 104.134 105.409 104.825 105.409C117.182 105.409 127.781 112.742 133.196 123.382C123.057 135.884 107.907 143.879 91.0002 143.879Z" fill="#D0D6DD"/>
</svg>
